<svg width="168" height="34" viewBox="0 0 168 34" fill="none" xmlns="http://www.w3.org/2000/svg">
<path d="M3.1 14.2102C3.34 14.2302 3.58 14.2602 3.81 14.3202C4.04 14.3802 4.25 14.4502 4.45 14.5602C4.65 14.6602 4.82 14.8002 4.97 14.9702C5.12 15.1402 5.23 15.3502 5.32 15.6002C5.41 15.8502 5.45 16.1502 5.45 16.5002C5.45 16.9402 5.37 17.3102 5.2 17.5902C5.04 17.8802 4.82 18.1002 4.54 18.2702C4.26 18.4402 3.94 18.5502 3.58 18.6102C3.22 18.6702 2.83 18.7102 2.43 18.7102H1.38V21.1602H0V14.2002H2.38C2.62 14.2002 2.86 14.2002 3.1 14.2202V14.2102ZM1.37 17.6302H2.5C2.71 17.6302 2.91 17.6102 3.1 17.5802C3.29 17.5502 3.45 17.4902 3.58 17.4102C3.72 17.3302 3.83 17.2102 3.91 17.0602C3.99 16.9102 4.03 16.7202 4.03 16.4902C4.03 16.2002 3.98 15.9802 3.88 15.8102C3.78 15.6502 3.65 15.5202 3.5 15.4402C3.34 15.3602 3.17 15.3002 2.98 15.2802C2.79 15.2602 2.6 15.2502 2.41 15.2502H1.37V17.6202V17.6302Z" fill="black"/>
<path d="M12.4799 19.1393C12.3199 19.5793 12.0899 19.9693 11.7899 20.2793C11.4899 20.5993 11.1299 20.8393 10.7099 21.0093C10.2899 21.1793 9.81988 21.2693 9.29988 21.2693C8.77988 21.2693 8.30988 21.1793 7.88988 21.0093C7.46988 20.8393 7.10988 20.5893 6.80988 20.2793C6.50988 19.9593 6.27988 19.5793 6.11988 19.1393C5.95988 18.6893 5.87988 18.1993 5.87988 17.6693C5.87988 17.1393 5.95988 16.6393 6.11988 16.1993C6.27988 15.7493 6.50988 15.3793 6.80988 15.0593C7.10988 14.7393 7.46988 14.4993 7.88988 14.3293C8.30988 14.1593 8.77988 14.0693 9.29988 14.0693C9.81988 14.0693 10.2899 14.1593 10.7099 14.3293C11.1299 14.4993 11.4899 14.7493 11.7899 15.0593C12.0899 15.3693 12.3199 15.7493 12.4799 16.1993C12.6399 16.6393 12.7199 17.1393 12.7199 17.6693C12.7199 18.1993 12.6399 18.6993 12.4799 19.1393ZM7.47988 18.7493C7.58988 19.0593 7.72988 19.3293 7.90988 19.5393C8.08988 19.7493 8.29988 19.9093 8.53988 20.0193C8.77988 20.1293 9.03988 20.1793 9.30988 20.1793C9.57988 20.1793 9.82988 20.1293 10.0799 20.0193C10.3299 19.9093 10.5299 19.7493 10.7099 19.5393C10.8899 19.3293 11.0299 19.0693 11.1399 18.7493C11.2499 18.4293 11.2999 18.0693 11.2999 17.6693C11.2999 17.2693 11.2499 16.8993 11.1399 16.5893C11.0299 16.2793 10.8899 16.0193 10.7099 15.8093C10.5299 15.5993 10.3199 15.4393 10.0799 15.3293C9.83988 15.2193 9.57988 15.1693 9.30988 15.1693C9.03988 15.1693 8.77988 15.2193 8.53988 15.3293C8.29988 15.4393 8.08988 15.5993 7.90988 15.8093C7.72988 16.0193 7.58988 16.2793 7.47988 16.5893C7.36988 16.8993 7.31988 17.2593 7.31988 17.6693C7.31988 18.0793 7.36988 18.4393 7.47988 18.7493Z" fill="black"/>
<path d="M20.1398 14.1895H21.5398L19.9898 21.1495H18.3698L17.3098 15.9695L16.2498 21.1495H14.6298L13.0898 14.1895H14.5098L15.5498 19.2595L16.5198 14.1895H18.1198L19.1898 19.2895L20.1398 14.1895Z" fill="black"/>
<path d="M27.3298 14.1897V15.2997H23.6298V17.0297H27.1198V18.1397H23.6298V20.0297H27.3298V21.1397H22.2598V14.1797H27.3298V14.1897Z" fill="black"/>
<path d="M30.7402 18.4195H29.6102V21.1495H28.2402V14.1895H30.5202C31.1002 14.1895 31.5802 14.2295 31.9802 14.3095C32.3802 14.3895 32.7102 14.5195 32.9602 14.6895C33.2102 14.8595 33.4002 15.0795 33.5102 15.3495C33.6302 15.6195 33.6802 15.9295 33.6802 16.2995C33.6802 16.6995 33.5802 17.0595 33.3802 17.3795C33.1802 17.6995 32.8602 17.9495 32.4202 18.1295L33.9702 21.1395H32.4402L31.0602 18.4095H30.7302L30.7402 18.4195ZM29.6102 17.3595H30.7402C31.2802 17.3595 31.6702 17.2695 31.9102 17.0995C32.1502 16.9195 32.2702 16.6595 32.2702 16.3195C32.2702 16.1195 32.2302 15.9595 32.1502 15.8195C32.0702 15.6895 31.9602 15.5795 31.8202 15.4895C31.6802 15.3995 31.5102 15.3495 31.3102 15.3195C31.1102 15.2895 30.9002 15.2695 30.6702 15.2695H29.6002V17.3595H29.6102Z" fill="black"/>
<path d="M39.8498 14.1897V15.2997H36.1498V17.0297H39.6398V18.1397H36.1498V20.0297H39.8498V21.1397H34.7798V14.1797H39.8498V14.1897Z" fill="black"/>
<path d="M44.3598 14.3395C44.8298 14.4395 45.2398 14.6195 45.5898 14.8895C45.9298 15.1495 46.2098 15.5095 46.3998 15.9595C46.5998 16.4095 46.6898 16.9795 46.6898 17.6695C46.6898 18.3595 46.5898 18.9295 46.3998 19.3795C46.1998 19.8295 45.9298 20.1795 45.5898 20.4495C45.2398 20.7195 44.8298 20.8995 44.3598 20.9995C43.8898 21.0995 43.3698 21.1495 42.8198 21.1495H40.7598V14.1895H42.8198C43.3698 14.1895 43.8798 14.2395 44.3598 14.3395ZM45.0598 16.4095C44.9198 16.0895 44.7298 15.8495 44.4898 15.6795C44.2498 15.5095 43.9898 15.3995 43.6798 15.3395C43.3798 15.2895 43.0698 15.2595 42.7598 15.2595H42.1298V20.0695H42.7598C43.0698 20.0695 43.3798 20.0395 43.6798 19.9895C43.9798 19.9395 44.2498 19.8195 44.4898 19.6495C44.7298 19.4795 44.9198 19.2395 45.0598 18.9195C45.1998 18.5995 45.2698 18.1795 45.2698 17.6595C45.2698 17.1395 45.1998 16.7195 45.0598 16.4095Z" fill="black"/>
<path d="M52.6302 14.1895C52.9402 14.1895 53.2402 14.2195 53.5402 14.2695C53.8402 14.3195 54.1102 14.4195 54.3502 14.5595C54.5902 14.6995 54.7802 14.8795 54.9302 15.1195C55.0802 15.3595 55.1602 15.6495 55.1602 16.0095C55.1602 16.1795 55.1402 16.3295 55.0902 16.4795C55.0402 16.6295 54.9802 16.7695 54.9002 16.8995C54.8202 17.0295 54.7402 17.1395 54.6502 17.2395C54.5602 17.3395 54.4702 17.4195 54.3802 17.4795C54.5102 17.5395 54.6402 17.6195 54.7702 17.7095C54.8902 17.7995 55.0102 17.8995 55.1002 18.0295C55.2002 18.1595 55.2702 18.3095 55.3302 18.4895C55.3902 18.6695 55.4202 18.8695 55.4202 19.1095C55.4202 19.4895 55.3502 19.8095 55.2002 20.0595C55.0602 20.3195 54.8602 20.5295 54.6202 20.6895C54.3802 20.8495 54.0902 20.9695 53.7702 21.0495C53.4502 21.1195 53.1102 21.1595 52.7502 21.1595H49.9302V14.1995H52.6402L52.6302 14.1895ZM52.7202 17.0595C53.0502 17.0595 53.3002 16.9795 53.4802 16.8295C53.6602 16.6795 53.7502 16.4495 53.7502 16.1395C53.7502 15.8595 53.6602 15.6495 53.4702 15.4995C53.2802 15.3495 53.0302 15.2695 52.7102 15.2695H51.2902V17.0595H52.7102H52.7202ZM52.8202 20.0695C53.2202 20.0695 53.5202 19.9895 53.7202 19.8195C53.9202 19.6495 54.0202 19.4095 54.0202 19.0895C54.0202 18.7695 53.9202 18.5195 53.7102 18.3495C53.5102 18.1795 53.1902 18.0995 52.7602 18.0995H51.3002V20.0795H52.8202V20.0695Z" fill="black"/>
<path d="M58.6101 17.0995L60.2601 14.1895H61.8201L59.2601 18.4595V21.1495H57.8901V18.4395L55.3901 14.1895H56.9901L58.6101 17.0995Z" fill="black"/>
<path d="M103 33.22C94.9199 33.22 87.3099 31.54 81.5699 28.5C75.6699 25.37 72.4199 21.15 72.4199 16.61C72.4199 12.07 75.6699 7.85 81.5699 4.72C87.3099 1.68 94.9199 0 103 0C103.45 0 103.82 0.37 103.82 0.82C103.82 1.27 103.45 1.64 103 1.64C94.7399 1.64 88.0299 8.36 88.0299 16.61C88.0299 24.86 94.7499 31.58 103 31.58C103.45 31.58 103.82 31.95 103.82 32.4C103.82 32.85 103.45 33.22 103 33.22ZM103 0.55C95.0099 0.55 87.4899 2.2 81.8199 5.21C76.0999 8.24 72.9599 12.29 72.9599 16.62C72.9599 20.95 76.1099 25 81.8199 28.03C87.4799 31.03 94.9999 32.69 103 32.69C103.15 32.69 103.28 32.57 103.28 32.41C103.28 32.25 103.16 32.13 103 32.13C94.4499 32.13 87.4899 25.17 87.4899 16.62C87.4899 8.07 94.4499 1.11 103 1.11C103.15 1.11 103.28 0.99 103.28 0.83C103.28 0.67 103.16 0.55 103 0.55ZM96.1799 31.36L93.8999 30.49C86.9699 27.84 82.6599 22.52 82.6599 16.62C82.6599 10.72 86.9699 5.4 93.8999 2.75L96.1799 1.88L94.1499 3.23C89.6399 6.22 86.9399 11.23 86.9399 16.63C86.9399 22.03 89.6299 27.03 94.1499 30.03L96.1799 31.38V31.36ZM92.0499 4.15C86.5399 6.91 83.1999 11.55 83.1999 16.62C83.1999 21.69 86.5399 26.33 92.0499 29.09C88.4799 25.95 86.3999 21.44 86.3999 16.62C86.3999 11.8 88.4799 7.29 92.0499 4.15ZM90.1799 29.93C82.5799 27.1 78.0399 22.12 78.0399 16.62C78.0399 11.12 82.5799 6.14 90.1799 3.31L90.4099 3.8C89.6499 4.24 88.9299 4.73 88.2599 5.24C84.2999 8.28 82.1099 12.32 82.1099 16.62C82.1099 20.92 84.2899 24.97 88.2599 28C88.9299 28.51 89.6499 29 90.4099 29.44L90.1799 29.93ZM87.7499 4.94C82.0299 7.77 78.5799 12.09 78.5799 16.62C78.5799 21.15 82.0299 25.47 87.7599 28.3C83.7699 25.18 81.5699 21.03 81.5699 16.62C81.5699 12.21 83.7699 8.07 87.7599 4.94H87.7499ZM86.3999 29.43C84.8599 28.87 83.4099 28.24 82.0799 27.53C76.5499 24.6 73.5099 20.72 73.5099 16.61C73.5099 12.5 76.5499 8.62 82.0799 5.69C83.3999 4.99 84.8599 4.35 86.3999 3.79L86.6199 4.28C86.0599 4.58 85.5099 4.89 85.0099 5.21C80.1599 8.24 77.4899 12.29 77.4899 16.61C77.4899 20.93 80.1599 24.97 85.0099 28.01C85.5199 28.33 86.0599 28.64 86.6199 28.94L86.3999 29.43ZM83.4499 5.61C83.0699 5.79 82.6999 5.98 82.3399 6.17C76.9999 9 74.0599 12.71 74.0599 16.61C74.0599 20.51 76.9999 24.22 82.3399 27.05C82.6999 27.24 83.0699 27.43 83.4499 27.61C79.2399 24.58 76.9499 20.72 76.9499 16.61C76.9499 12.5 79.2499 8.63 83.4599 5.61H83.4499Z" fill="black"/>
<path d="M136.72 33.22C136.27 33.22 135.9 32.85 135.9 32.4C135.9 31.95 136.27 31.58 136.72 31.58C144.98 31.58 151.69 24.86 151.69 16.61C151.69 8.36 144.97 1.64 136.72 1.64C136.27 1.64 135.9 1.27 135.9 0.82C135.9 0.37 136.27 0 136.72 0C144.8 0 152.41 1.68 158.15 4.72C164.05 7.85 167.3 12.07 167.3 16.61C167.3 21.15 164.05 25.37 158.15 28.5C152.41 31.54 144.8 33.22 136.72 33.22ZM136.72 0.55C136.57 0.55 136.44 0.67 136.44 0.83C136.44 0.99 136.56 1.11 136.72 1.11C145.27 1.11 152.23 8.07 152.23 16.62C152.23 25.17 145.27 32.13 136.72 32.13C136.57 32.13 136.44 32.25 136.44 32.41C136.44 32.57 136.56 32.69 136.72 32.69C144.71 32.69 152.23 31.04 157.9 28.03C163.62 25 166.76 20.95 166.76 16.62C166.76 12.29 163.61 8.24 157.9 5.21C152.24 2.21 144.72 0.55 136.72 0.55ZM143.54 31.36L145.57 30.01C150.08 27.02 152.78 22.01 152.78 16.61C152.78 11.21 150.09 6.21 145.57 3.21L143.54 1.86L145.82 2.73C152.75 5.38 157.06 10.7 157.06 16.6C157.06 22.5 152.75 27.82 145.82 30.47L143.54 31.34V31.36ZM147.67 4.15C151.24 7.29 153.32 11.8 153.32 16.62C153.32 21.44 151.24 25.95 147.67 29.09C153.18 26.33 156.52 21.69 156.52 16.62C156.52 11.55 153.18 6.91 147.67 4.15ZM149.54 29.93L149.31 29.44C150.07 29 150.8 28.51 151.46 28C155.42 24.96 157.61 20.92 157.61 16.62C157.61 12.32 155.43 8.27 151.46 5.24C150.79 4.73 150.07 4.24 149.31 3.8L149.54 3.31C157.14 6.14 161.68 11.12 161.68 16.62C161.68 22.12 157.14 27.1 149.54 29.93ZM151.97 4.94C155.96 8.07 158.16 12.2 158.16 16.62C158.16 21.04 155.96 25.17 151.97 28.3C157.69 25.47 161.15 21.15 161.15 16.62C161.15 12.09 157.7 7.77 151.98 4.94H151.97ZM153.31 29.43L153.09 28.94C153.66 28.64 154.2 28.33 154.7 28.01C159.55 24.98 162.22 20.93 162.22 16.61C162.22 12.29 159.55 8.25 154.7 5.21C154.2 4.89 153.65 4.58 153.09 4.28L153.31 3.79C154.85 4.35 156.3 4.98 157.63 5.69C163.16 8.62 166.2 12.5 166.2 16.61C166.2 20.72 163.16 24.6 157.63 27.53C156.31 28.23 154.85 28.87 153.31 29.43ZM156.27 5.61C160.48 8.64 162.78 12.5 162.78 16.61C162.78 20.72 160.48 24.59 156.27 27.61C156.65 27.43 157.02 27.24 157.38 27.05C162.72 24.22 165.66 20.51 165.66 16.61C165.66 12.71 162.72 9 157.38 6.17C157.02 5.98 156.65 5.79 156.27 5.61Z" fill="black"/>
<path d="M103.7 12.1998C103.7 9.88977 101.83 8.00977 99.5101 8.00977H98.7401C98.6701 8.00977 98.6201 8.06977 98.6201 8.12977V21.0198C98.6201 23.3298 100.49 25.2098 102.81 25.2098H119.44C119.51 25.2098 119.56 25.1598 119.56 25.0898V20.6198C119.56 20.5498 119.5 20.4998 119.44 20.4998H104.44C104.03 20.4998 103.7 20.1698 103.7 19.7598V12.2098V12.1998Z" fill="black"/>
<path d="M119.44 12.9102H107.88C105.57 12.9102 103.7 14.7802 103.7 17.0902H119.43C119.5 17.0902 119.55 17.0402 119.55 16.9702V13.0402C119.55 12.9702 119.49 12.9202 119.43 12.9202L119.44 12.9102Z" fill="black"/>
<path d="M97.66 12.9102H92.83C92.76 12.9102 92.71 12.9702 92.71 13.0302V21.0202C92.71 23.3302 94.58 25.2102 96.9 25.2102H97.67C97.74 25.2102 97.79 25.1602 97.79 25.0902V13.0402C97.79 12.9702 97.73 12.9202 97.67 12.9202L97.66 12.9102Z" fill="black"/>
<path d="M97.6602 8.01953H92.8202C92.7539 8.01953 92.7002 8.07326 92.7002 8.13953V12.0795C92.7002 12.1458 92.7539 12.1995 92.8202 12.1995H97.6602C97.7265 12.1995 97.7802 12.1458 97.7802 12.0795V8.13953C97.7802 8.07326 97.7265 8.01953 97.6602 8.01953Z" fill="black"/>
<path d="M142.06 25.2195H146.89C146.96 25.2195 147.01 25.1695 147.01 25.0995V13.0995C147.01 10.2895 144.74 8.01953 141.93 8.01953H136.37C136.3 8.01953 136.25 8.07953 136.25 8.13953V12.1895H141.2C141.61 12.1895 141.94 12.5195 141.94 12.9295V25.0895C141.94 25.1595 142 25.2095 142.06 25.2095V25.2195Z" fill="black"/>
<path d="M121.3 8.01977H120.53C120.46 8.01977 120.41 8.07977 120.41 8.13977V25.0898C120.41 25.1598 120.47 25.2098 120.53 25.2098H125.36C125.43 25.2098 125.48 25.1598 125.48 25.0898V12.1998C125.48 9.88977 123.61 8.00977 121.29 8.00977L121.3 8.01977Z" fill="black"/>
<path d="M136.25 25.0898V12.1998C136.25 9.88977 134.38 8.00977 132.06 8.00977H125.6C125.53 8.00977 125.48 8.06977 125.48 8.12977V12.1798H130.43C130.84 12.1798 131.17 12.5098 131.17 12.9198V25.0798C131.17 25.1498 131.22 25.1998 131.29 25.1998H136.12C136.19 25.1998 136.24 25.1498 136.24 25.0798L136.25 25.0898Z" fill="black"/>
</svg>
